<svg xmlns="http://www.w3.org/2000/svg" xmlns:xlink="http://www.w3.org/1999/xlink" viewBox="0 0 117.94 17.86">
  <symbol id="logo">
    <path d="M0 .43h10.18v1.44h-8.6v6.05h7.99v1.44H1.58v8.06H0zm13.34 0h1.58v16.99h-1.58zm6.24 0h1.58v15.55h7.92v1.44h-9.5zm12 0h10.39v1.44h-8.81v6.05h8.26v1.44h-8.26v6.62h9.19v1.44H31.57V.43Zm14.69 13.85c.42.72.96 1.26 1.62 1.61s1.42.53 2.27.53c.53 0 1.02-.08 1.49-.24.46-.16.87-.38 1.21-.67s.62-.64.82-1.04q.3-.615.3-1.38c0-.59-.12-1.08-.37-1.46s-.58-.7-1-.95-.88-.46-1.4-.64-1.05-.35-1.61-.53c-.55-.18-1.09-.38-1.61-.6a5.2 5.2 0 0 1-1.4-.88c-.42-.36-.75-.81-1-1.36s-.37-1.22-.37-2.02c0-.75.15-1.42.44-2s.7-1.07 1.2-1.46S47.94.5 48.6.3s1.34-.3 2.06-.3c.93 0 1.79.16 2.58.49s1.48.88 2.05 1.64l-1.37.98c-.4-.56-.87-.98-1.4-1.26-.54-.28-1.17-.42-1.91-.42-.51 0-1 .07-1.46.2-.46.14-.87.34-1.21.6s-.62.6-.83 1-.31.87-.31 1.42c0 .85.22 1.5.65 1.96q.645.69 1.62 1.08c.65.26 1.35.5 2.11.7s1.46.47 2.11.8c.65.34 1.19.8 1.62 1.4s.65 1.43.65 2.48c0 .77-.14 1.45-.43 2.04s-.68 1.09-1.16 1.5c-.49.41-1.05.72-1.69.92-.64.21-1.3.31-1.99.31-1.12 0-2.15-.2-3.1-.59-.94-.39-1.75-1.05-2.42-1.98l1.51-1.01ZM59.16.43h1.58v7.49h9.5V.43h1.58v16.99h-1.58V9.36h-9.5v8.06h-1.58zm22.54 0h1.63l7.15 16.99H88.7l-1.85-4.51h-9l-1.92 4.51h-1.66zm.74 1.73-3.96 9.31h7.8zM92.93.43h4.46c.22 0 .53 0 .91.02s.8.06 1.25.14.9.21 1.37.38c.46.18.88.43 1.25.77s.67.76.91 1.27.36 1.14.36 1.87c0 .82-.14 1.49-.42 2.02s-.63.96-1.06 1.28-.89.57-1.4.73-1 .27-1.46.34l4.94 8.16h-1.8l-4.78-8.06h-2.95v8.06h-1.58zm1.58 7.49h3.36c.83 0 1.51-.1 2.03-.31s.92-.46 1.21-.77c.29-.3.48-.63.59-.98.1-.35.16-.67.16-.96s-.05-.61-.16-.96c-.1-.35-.3-.68-.59-.98s-.69-.56-1.21-.77-1.2-.31-2.03-.31h-3.36v6.05ZM107.16.43h10.39v1.44h-8.81v6.05H117v1.44h-8.26v6.62h9.19v1.44h-10.78V.43Z" fill="currentColor"/>
  </symbol>
  <use href="#logo" xlink:href="#logo"></use>
</svg>
