<?xml version="1.0" encoding="UTF-8"?><svg id="Layer_2" xmlns="http://www.w3.org/2000/svg" viewBox="0 0 117.94 17.86"><defs><style>.cls-1{fill:#010101;}</style></defs><g id="Layer_1-2"><path class="cls-1" d="M0,.43h10.18v1.44H1.58v6.05h7.99v1.44H1.58v8.06H0V.43Z"/><path class="cls-1" d="M13.34.43h1.58v16.99h-1.58V.43Z"/><path class="cls-1" d="M19.58.43h1.58v15.55h7.92v1.44h-9.5V.43Z"/><path class="cls-1" d="M31.58.43h10.39v1.44h-8.81v6.05h8.26v1.44h-8.26v6.62h9.19v1.44h-10.78V.43Z"/><path class="cls-1" d="M46.27,14.28c.42.72.96,1.26,1.62,1.61.66.35,1.42.53,2.27.53.53,0,1.02-.08,1.49-.24.46-.16.87-.38,1.21-.67s.62-.64.82-1.04c.2-.41.3-.87.3-1.38,0-.59-.12-1.08-.37-1.46-.25-.38-.58-.7-1-.95s-.88-.46-1.4-.64c-.52-.18-1.05-.35-1.61-.53-.55-.18-1.09-.38-1.61-.6-.52-.22-.99-.52-1.4-.88-.42-.36-.75-.81-1-1.36s-.37-1.22-.37-2.02c0-.75.15-1.42.44-2,.29-.58.7-1.07,1.2-1.46.5-.39,1.08-.69,1.74-.89s1.34-.3,2.06-.3c.93,0,1.79.16,2.58.49.79.33,1.48.88,2.05,1.64l-1.37.98c-.4-.56-.87-.98-1.4-1.26-.54-.28-1.17-.42-1.91-.42-.51,0-1,.07-1.46.2-.46.14-.87.34-1.21.6-.34.26-.62.6-.83,1-.21.4-.31.87-.31,1.42,0,.85.22,1.5.65,1.96.43.46.97.82,1.62,1.08.65.26,1.35.5,2.11.7s1.46.47,2.11.8c.65.34,1.19.8,1.62,1.4.43.6.65,1.43.65,2.48,0,.77-.14,1.45-.43,2.04s-.68,1.09-1.16,1.5c-.49.41-1.05.72-1.69.92-.64.21-1.3.31-1.99.31-1.12,0-2.15-.2-3.1-.59-.94-.39-1.75-1.05-2.42-1.98l1.51-1.01Z"/><path class="cls-1" d="M59.16.43h1.58v7.49h9.5V.43h1.58v16.99h-1.58v-8.06h-9.5v8.06h-1.58V.43Z"/><path class="cls-1" d="M81.7.43h1.63l7.15,16.99h-1.78l-1.85-4.51h-9l-1.92,4.51h-1.66L81.7.43ZM82.44,2.16l-3.96,9.31h7.8l-3.84-9.31Z"/><path class="cls-1" d="M92.93.43h4.46c.22,0,.53,0,.91.02s.8.06,1.25.14.9.21,1.37.38c.46.18.88.43,1.25.77.37.34.67.76.91,1.27.24.51.36,1.14.36,1.87,0,.82-.14,1.49-.42,2.02-.28.53-.63.96-1.06,1.28s-.89.57-1.4.73c-.51.16-1,.27-1.46.34l4.94,8.16h-1.8l-4.78-8.06h-2.95v8.06h-1.58V.43ZM94.51,7.92h3.36c.83,0,1.51-.1,2.03-.31.52-.21.92-.46,1.21-.77.29-.3.48-.63.59-.98.1-.35.16-.67.16-.96s-.05-.61-.16-.96c-.1-.35-.3-.68-.59-.98-.29-.3-.69-.56-1.21-.77-.52-.21-1.2-.31-2.03-.31h-3.36v6.05Z"/><path class="cls-1" d="M107.16.43h10.39v1.44h-8.81v6.05h8.26v1.44h-8.26v6.62h9.19v1.44h-10.78V.43Z"/></g></svg>